<svg width="48" height="47" viewBox="0 0 48 47" fill="none" xmlns="http://www.w3.org/2000/svg">
<path d="M24.0598 46.448C19.8358 46.448 15.9531 45.4667 12.4118 43.504C8.91308 41.5413 6.11842 38.8107 4.02775 35.312C1.97975 31.7707 0.95575 27.8027 0.95575 23.408C0.95575 19.0133 1.97975 15.0667 4.02775 11.568C6.11842 8.06933 8.91308 5.33867 12.4118 3.376C15.9531 1.41333 19.8358 0.431999 24.0598 0.431999C28.2838 0.431999 32.1451 1.41333 35.6438 3.376C39.1851 5.33867 41.9584 8.06933 43.9638 11.568C46.0118 15.0667 47.0358 19.0133 47.0358 23.408C47.0358 27.8027 46.0118 31.7707 43.9638 35.312C41.9158 38.8107 39.1424 41.5413 35.6438 43.504C32.1451 45.4667 28.2838 46.448 24.0598 46.448ZM24.0598 36.464C27.6438 36.464 30.5024 35.2693 32.6357 32.88C34.8118 30.4907 35.8998 27.3333 35.8998 23.408C35.8998 19.44 34.8118 16.2827 32.6357 13.936C30.5024 11.5467 27.6438 10.352 24.0598 10.352C20.4331 10.352 17.5318 11.5253 15.3558 13.872C13.2224 16.2187 12.1558 19.3973 12.1558 23.408C12.1558 27.376 13.2224 30.5547 15.3558 32.944C17.5318 35.2907 20.4331 36.464 24.0598 36.464Z" fill="#0C8A00"/>
</svg>
